<svg xmlns="http://www.w3.org/2000/svg" width="1200" height="650" viewBox="0 0 1200 650">
  <defs>
    <linearGradient id="bg" x1="0" y1="0" x2="1" y2="1">
      <stop offset="0%" stop-color="#fff1f8"/>
      <stop offset="100%" stop-color="#ffe0ef"/>
    </linearGradient>
    <filter id="shadow" x="-20%" y="-20%" width="140%" height="140%">
      <feDropShadow dx="0" dy="10" stdDeviation="12" flood-color="#9b2d63" flood-opacity="0.22"/>
    </filter>
  </defs>
  <rect width="1200" height="650" rx="36" fill="url(#bg)"/>
  <g opacity="0.95">
    <path d="M0 155 H1200" stroke="#f3b4d4" stroke-width="34"/>
    <path d="M0 325 H1200" stroke="#ffffff" stroke-width="36"/>
    <path d="M0 500 H1200" stroke="#f3b4d4" stroke-width="30"/>
    <path d="M210 0 V650" stroke="#ffffff" stroke-width="42"/>
    <path d="M485 0 V650" stroke="#f3b4d4" stroke-width="30"/>
    <path d="M785 0 V650" stroke="#ffffff" stroke-width="40"/>
    <path d="M1020 0 V650" stroke="#f3b4d4" stroke-width="28"/>
    <path d="M0 610 C220 470 330 500 520 395 C710 290 860 350 1200 210" fill="none" stroke="#ffd36e" stroke-width="42" stroke-linecap="round"/>
    <path d="M0 610 C220 470 330 500 520 395 C710 290 860 350 1200 210" fill="none" stroke="#ffffff" stroke-width="8" stroke-dasharray="26 28" stroke-linecap="round"/>
  </g>
  <g filter="url(#shadow)">
    <path d="M600 120 C500 120 420 200 420 300 C420 430 600 545 600 545 C600 545 780 430 780 300 C780 200 700 120 600 120Z" fill="#d84f93"/>
    <circle cx="600" cy="300" r="82" fill="white"/>
    <text x="600" y="324" font-family="Arial, sans-serif" font-size="76" font-weight="700" text-anchor="middle" fill="#d84f93">💎</text>
  </g>
  <rect x="285" y="545" width="630" height="78" rx="39" fill="white" filter="url(#shadow)"/>
  <text x="600" y="594" font-family="Arial, sans-serif" font-size="30" font-weight="700" text-anchor="middle" fill="#7a244d">Zhiqiang's Jewelry Official Store Location</text>
  <text x="600" y="75" font-family="Arial, sans-serif" font-size="42" font-weight="800" text-anchor="middle" fill="#7a244d">Find Us on Google Maps</text>
</svg>
